<svg xmlns="http://www.w3.org/2000/svg" width="352" height="169" viewBox="0 0 352 169" role="img" aria-label="Fafasho, a gitagotchi">
<title>Fafasho — @wjames111&#8217;s gitagotchi</title>
<rect x="0.5" y="0.5" width="351" height="168" rx="8" fill="#0d1117" stroke="#30363d"/>
<g transform="translate(32,22) scale(6)" shape-rendering="crispEdges">
<g><rect x="15" y="0" width="18" height="1" fill="rgb(157,142,14)"/><rect x="11" y="1" width="6" height="1" fill="rgb(157,142,14)"/><rect x="17" y="1" width="4" height="1" fill="rgb(241,224,90)"/><rect x="21" y="1" width="2" height="1" fill="rgb(236,216,40)"/><rect x="23" y="1" width="8" height="1" fill="rgb(241,224,90)"/><rect x="31" y="1" width="5" height="1" fill="rgb(157,142,14)"/><rect x="10" y="2" width="3" height="1" fill="rgb(157,142,14)"/><rect x="13" y="2" width="4" height="1" fill="rgb(241,224,90)"/><rect x="17" y="2" width="3" height="1" fill="rgb(236,216,40)"/><rect x="20" y="2" width="5" height="1" fill="rgb(241,224,90)"/><rect x="25" y="2" width="3" height="1" fill="rgb(236,216,40)"/><rect x="28" y="2" width="5" height="1" fill="rgb(241,224,90)"/><rect x="33" y="2" width="4" height="1" fill="rgb(157,142,14)"/><rect x="10" y="3" width="2" height="1" fill="rgb(157,142,14)"/><rect x="12" y="3" width="2" height="1" fill="rgb(241,224,90)"/><rect x="14" y="3" width="4" height="1" fill="rgb(236,216,40)"/><rect x="18" y="3" width="2" height="1" fill="rgb(241,224,90)"/><rect x="20" y="3" width="1" height="1" fill="rgb(236,216,40)"/><rect x="21" y="3" width="1" height="1" fill="rgb(241,224,90)"/><rect x="22" y="3" width="4" height="1" fill="rgb(236,216,40)"/><rect x="26" y="3" width="4" height="1" fill="rgb(241,224,90)"/><rect x="30" y="3" width="4" height="1" fill="rgb(236,216,40)"/><rect x="34" y="3" width="1" height="1" fill="rgb(241,224,90)"/><rect x="35" y="3" width="3" height="1" fill="rgb(157,142,14)"/><rect x="10" y="4" width="2" height="1" fill="rgb(157,142,14)"/><rect x="12" y="4" width="4" height="1" fill="rgb(241,224,90)"/><rect x="16" y="4" width="4" height="1" fill="rgb(236,216,40)"/><rect x="20" y="4" width="4" height="1" fill="rgb(241,224,90)"/><rect x="24" y="4" width="12" height="1" fill="rgb(236,216,40)"/><rect x="36" y="4" width="2" height="1" fill="rgb(157,142,14)"/><rect x="10" y="5" width="3" height="1" fill="rgb(157,142,14)"/><rect x="13" y="5" width="2" height="1" fill="rgb(241,224,90)"/><rect x="15" y="5" width="2" height="1" fill="rgb(236,216,40)"/><rect x="17" y="5" width="2" height="1" fill="rgb(241,224,90)"/><rect x="19" y="5" width="1" height="1" fill="rgb(236,216,40)"/><rect x="20" y="5" width="1" height="1" fill="rgb(241,224,90)"/><rect x="21" y="5" width="1" height="1" fill="rgb(236,216,40)"/><rect x="22" y="5" width="1" height="1" fill="rgb(241,224,90)"/><rect x="23" y="5" width="2" height="1" fill="rgb(236,216,40)"/><rect x="25" y="5" width="5" height="1" fill="rgb(241,224,90)"/><rect x="30" y="5" width="3" height="1" fill="rgb(236,216,40)"/><rect x="33" y="5" width="1" height="1" fill="rgb(241,224,90)"/><rect x="34" y="5" width="1" height="1" fill="rgb(236,216,40)"/><rect x="35" y="5" width="3" height="1" fill="rgb(157,142,14)"/><rect x="11" y="6" width="6" height="1" fill="rgb(157,142,14)"/><rect x="17" y="6" width="4" height="1" fill="rgb(241,224,90)"/><rect x="21" y="6" width="4" height="1" fill="rgb(236,216,40)"/><rect x="25" y="6" width="5" height="1" fill="rgb(241,224,90)"/><rect x="30" y="6" width="1" height="1" fill="rgb(236,216,40)"/><rect x="31" y="6" width="6" height="1" fill="rgb(157,142,14)"/><rect x="15" y="7" width="18" height="1" fill="rgb(157,142,14)"/></g>
</g>
<text x="176" y="100" text-anchor="middle" font-family="ui-monospace,SFMono-Regular,Menlo,Consolas,monospace" font-size="16" font-weight="bold" fill="#F1E05A">Fafasho</text>
<text x="176" y="119" text-anchor="middle" font-family="ui-monospace,SFMono-Regular,Menlo,Consolas,monospace" font-size="11" fill="#8b949e">the Randu · adult · @wjames111 · hibernating</text>
<text x="72" y="143" text-anchor="end" font-family="ui-monospace,SFMono-Regular,Menlo,Consolas,monospace" font-size="11" fill="#f778ba">&#9829;</text>
<rect x="78" y="135" width="180" height="8" rx="4" fill="#21262d"/>
<rect x="78" y="135" width="55" height="8" rx="4" fill="#f85149"/>
<text x="266" y="143" font-family="ui-monospace,SFMono-Regular,Menlo,Consolas,monospace" font-size="11" fill="#8b949e">31</text>
<text x="340" y="159" text-anchor="end" font-family="ui-monospace,SFMono-Regular,Menlo,Consolas,monospace" font-size="9" fill="#484f58">gitagotchi</text>
</svg>
