<svg xmlns="http://www.w3.org/2000/svg" width="352" height="217" viewBox="0 0 352 217" role="img" aria-label="Fafasho, a gitagotchi">
<title>Fafasho — @wjames111&#8217;s gitagotchi</title>
<rect x="0.5" y="0.5" width="351" height="216" rx="8" fill="#0d1117" stroke="#30363d"/>
<g transform="translate(32,22) scale(6)" shape-rendering="crispEdges">
<g><rect x="13" y="0" width="4" height="1" fill="rgb(157,142,14)"/><rect x="31" y="0" width="4" height="1" fill="rgb(157,142,14)"/><rect x="11" y="1" width="3" height="1" fill="rgb(157,142,14)"/><rect x="14" y="1" width="2" height="1" fill="rgb(241,224,90)"/><rect x="16" y="1" width="3" height="1" fill="rgb(157,142,14)"/><rect x="29" y="1" width="3" height="1" fill="rgb(157,142,14)"/><rect x="32" y="1" width="2" height="1" fill="rgb(241,224,90)"/><rect x="34" y="1" width="3" height="1" fill="rgb(157,142,14)"/><rect x="10" y="2" width="3" height="1" fill="rgb(157,142,14)"/><rect x="13" y="2" width="1" height="1" fill="rgb(241,224,90)"/><rect x="14" y="2" width="2" height="1" fill="rgb(247,120,186)"/><rect x="16" y="2" width="1" height="1" fill="rgb(241,224,90)"/><rect x="17" y="2" width="3" height="1" fill="rgb(157,142,14)"/><rect x="28" y="2" width="3" height="1" fill="rgb(157,142,14)"/><rect x="31" y="2" width="1" height="1" fill="rgb(241,224,90)"/><rect x="32" y="2" width="2" height="1" fill="rgb(247,120,186)"/><rect x="34" y="2" width="1" height="1" fill="rgb(241,224,90)"/><rect x="35" y="2" width="3" height="1" fill="rgb(157,142,14)"/><rect x="10" y="3" width="2" height="1" fill="rgb(157,142,14)"/><rect x="12" y="3" width="23" height="1" fill="rgb(241,224,90)"/><rect x="35" y="3" width="1" height="1" fill="rgb(236,216,40)"/><rect x="36" y="3" width="2" height="1" fill="rgb(157,142,14)"/><rect x="10" y="4" width="2" height="1" fill="rgb(157,142,14)"/><rect x="12" y="4" width="23" height="1" fill="rgb(241,224,90)"/><rect x="35" y="4" width="1" height="1" fill="rgb(236,216,40)"/><rect x="36" y="4" width="2" height="1" fill="rgb(157,142,14)"/><rect x="10" y="5" width="2" height="1" fill="rgb(157,142,14)"/><rect x="12" y="5" width="2" height="1" fill="rgb(236,216,40)"/><rect x="14" y="5" width="4" height="1" fill="rgb(157,142,14)"/><rect x="18" y="5" width="2" height="1" fill="rgb(236,216,40)"/><rect x="20" y="5" width="8" height="1" fill="rgb(241,224,90)"/><rect x="28" y="5" width="2" height="1" fill="rgb(236,216,40)"/><rect x="30" y="5" width="4" height="1" fill="rgb(157,142,14)"/><rect x="34" y="5" width="2" height="1" fill="rgb(236,216,40)"/><rect x="36" y="5" width="2" height="1" fill="rgb(157,142,14)"/><rect x="10" y="6" width="2" height="1" fill="rgb(157,142,14)"/><rect x="12" y="6" width="23" height="1" fill="rgb(241,224,90)"/><rect x="35" y="6" width="1" height="1" fill="rgb(236,216,40)"/><rect x="36" y="6" width="2" height="1" fill="rgb(157,142,14)"/><rect x="10" y="7" width="2" height="1" fill="rgb(157,142,14)"/><rect x="12" y="7" width="2" height="1" fill="rgb(241,224,90)"/><rect x="14" y="7" width="2" height="1" fill="rgb(252,249,221)"/><rect x="16" y="7" width="6" height="1" fill="rgb(241,224,90)"/><rect x="22" y="7" width="4" height="1" fill="rgb(34,39,46)"/><rect x="26" y="7" width="6" height="1" fill="rgb(241,224,90)"/><rect x="32" y="7" width="2" height="1" fill="rgb(252,249,221)"/><rect x="34" y="7" width="1" height="1" fill="rgb(241,224,90)"/><rect x="35" y="7" width="1" height="1" fill="rgb(236,216,40)"/><rect x="36" y="7" width="2" height="1" fill="rgb(157,142,14)"/><rect x="10" y="8" width="3" height="1" fill="rgb(157,142,14)"/><rect x="13" y="8" width="21" height="1" fill="rgb(241,224,90)"/><rect x="34" y="8" width="1" height="1" fill="rgb(236,216,40)"/><rect x="35" y="8" width="3" height="1" fill="rgb(157,142,14)"/><rect x="11" y="9" width="4" height="1" fill="rgb(157,142,14)"/><rect x="15" y="9" width="2" height="1" fill="rgb(241,224,90)"/><rect x="17" y="9" width="4" height="1" fill="rgb(70,121,210)"/><rect x="21" y="9" width="4" height="1" fill="rgb(241,224,90)"/><rect x="25" y="9" width="4" height="1" fill="rgb(70,121,210)"/><rect x="29" y="9" width="3" height="1" fill="rgb(241,224,90)"/><rect x="32" y="9" width="1" height="1" fill="rgb(236,216,40)"/><rect x="33" y="9" width="4" height="1" fill="rgb(157,142,14)"/><rect x="14" y="10" width="1" height="1" fill="rgb(157,142,14)"/><rect x="15" y="10" width="16" height="1" fill="rgb(70,121,210)"/><rect x="31" y="10" width="3" height="1" fill="rgb(157,142,14)"/><rect x="38" y="10" width="6" height="1" fill="rgb(157,142,14)"/><rect x="11" y="11" width="4" height="1" fill="rgb(157,142,14)"/><rect x="15" y="11" width="2" height="1" fill="rgb(241,224,90)"/><rect x="17" y="11" width="12" height="1" fill="rgb(70,121,210)"/><rect x="29" y="11" width="4" height="1" fill="rgb(241,224,90)"/><rect x="33" y="11" width="3" height="1" fill="rgb(157,142,14)"/><rect x="38" y="11" width="2" height="1" fill="rgb(157,142,14)"/><rect x="40" y="11" width="1" height="1" fill="rgb(241,224,90)"/><rect x="41" y="11" width="1" height="1" fill="rgb(236,216,40)"/><rect x="42" y="11" width="2" height="1" fill="rgb(157,142,14)"/><rect x="10" y="12" width="3" height="1" fill="rgb(157,142,14)"/><rect x="13" y="12" width="3" height="1" fill="rgb(241,224,90)"/><rect x="16" y="12" width="3" height="1" fill="rgb(254,251,236)"/><rect x="19" y="12" width="8" height="1" fill="rgb(70,121,210)"/><rect x="27" y="12" width="1" height="1" fill="rgb(254,251,236)"/><rect x="28" y="12" width="5" height="1" fill="rgb(241,224,90)"/><rect x="33" y="12" width="1" height="1" fill="rgb(236,216,40)"/><rect x="34" y="12" width="2" height="1" fill="rgb(157,142,14)"/><rect x="38" y="12" width="2" height="1" fill="rgb(157,142,14)"/><rect x="40" y="12" width="1" height="1" fill="rgb(241,224,90)"/><rect x="41" y="12" width="1" height="1" fill="rgb(236,216,40)"/><rect x="42" y="12" width="2" height="1" fill="rgb(157,142,14)"/><rect x="10" y="13" width="3" height="1" fill="rgb(157,142,14)"/><rect x="13" y="13" width="3" height="1" fill="rgb(241,224,90)"/><rect x="16" y="13" width="3" height="1" fill="rgb(236,216,40)"/><rect x="19" y="13" width="2" height="1" fill="rgb(70,121,210)"/><rect x="21" y="13" width="4" height="1" fill="rgb(236,216,40)"/><rect x="25" y="13" width="2" height="1" fill="rgb(70,121,210)"/><rect x="27" y="13" width="1" height="1" fill="rgb(236,216,40)"/><rect x="28" y="13" width="5" height="1" fill="rgb(241,224,90)"/><rect x="33" y="13" width="1" height="1" fill="rgb(236,216,40)"/><rect x="34" y="13" width="4" height="1" fill="rgb(157,142,14)"/><rect x="38" y="13" width="1" height="1" fill="rgb(241,224,90)"/><rect x="39" y="13" width="1" height="1" fill="rgb(236,216,40)"/><rect x="40" y="13" width="3" height="1" fill="rgb(157,142,14)"/><rect x="11" y="14" width="4" height="1" fill="rgb(157,142,14)"/><rect x="15" y="14" width="17" height="1" fill="rgb(241,224,90)"/><rect x="32" y="14" width="1" height="1" fill="rgb(236,216,40)"/><rect x="33" y="14" width="4" height="1" fill="rgb(157,142,14)"/><rect x="13" y="15" width="3" height="1" fill="rgb(157,142,14)"/><rect x="16" y="15" width="1" height="1" fill="rgb(241,224,90)"/><rect x="17" y="15" width="1" height="1" fill="rgb(236,216,40)"/><rect x="18" y="15" width="2" height="1" fill="rgb(157,142,14)"/><rect x="28" y="15" width="2" height="1" fill="rgb(157,142,14)"/><rect x="30" y="15" width="1" height="1" fill="rgb(241,224,90)"/><rect x="31" y="15" width="1" height="1" fill="rgb(236,216,40)"/><rect x="32" y="15" width="3" height="1" fill="rgb(157,142,14)"/></g>
</g>
<text x="176" y="148" text-anchor="middle" font-family="ui-monospace,SFMono-Regular,Menlo,Consolas,monospace" font-size="16" font-weight="bold" fill="#F1E05A">Fafasho</text>
<text x="176" y="167" text-anchor="middle" font-family="ui-monospace,SFMono-Regular,Menlo,Consolas,monospace" font-size="11" fill="#8b949e">the Randu · adult · @wjames111 · asleep</text>
<text x="72" y="191" text-anchor="end" font-family="ui-monospace,SFMono-Regular,Menlo,Consolas,monospace" font-size="11" fill="#f778ba">&#9829;</text>
<rect x="78" y="183" width="180" height="8" rx="4" fill="#21262d"/>
<rect x="78" y="183" width="120" height="8" rx="4" fill="#d29922"/>
<text x="266" y="191" font-family="ui-monospace,SFMono-Regular,Menlo,Consolas,monospace" font-size="11" fill="#8b949e">67</text>
<text x="340" y="207" text-anchor="end" font-family="ui-monospace,SFMono-Regular,Menlo,Consolas,monospace" font-size="9" fill="#484f58">gitagotchi</text>
</svg>
