<svg xmlns="http://www.w3.org/2000/svg" width="300" height="229" viewBox="0 0 300 229" role="img" aria-label="Tavupla, a gitagotchi">
<title>Tavupla — @wjames111&#8217;s gitagotchi</title>
<style>#blink{opacity:0;animation:bl 4.6s step-end infinite}@keyframes bl{0%,91%{opacity:0}91.01%,96%{opacity:1}96.01%,100%{opacity:0}}</style>
<rect x="0.5" y="0.5" width="299" height="228" rx="8" fill="#0d1117" stroke="#30363d"/>
<g transform="translate(78,22) scale(6)" shape-rendering="crispEdges">
<g><rect x="7" y="0" width="1" height="1" fill="rgb(157,142,14)"/><rect x="16" y="0" width="1" height="1" fill="rgb(157,142,14)"/><rect x="22" y="0" width="1" height="1" fill="rgb(205,214,224)"/><rect x="6" y="1" width="1" height="1" fill="rgb(157,142,14)"/><rect x="7" y="1" width="1" height="1" fill="rgb(241,224,90)"/><rect x="8" y="1" width="1" height="1" fill="rgb(157,142,14)"/><rect x="15" y="1" width="1" height="1" fill="rgb(157,142,14)"/><rect x="16" y="1" width="1" height="1" fill="rgb(241,224,90)"/><rect x="17" y="1" width="1" height="1" fill="rgb(157,142,14)"/><rect x="22" y="1" width="1" height="1" fill="rgb(205,214,224)"/><rect x="5" y="2" width="1" height="1" fill="rgb(157,142,14)"/><rect x="6" y="2" width="1" height="1" fill="rgb(241,224,90)"/><rect x="7" y="2" width="1" height="1" fill="rgb(247,120,186)"/><rect x="8" y="2" width="1" height="1" fill="rgb(241,224,90)"/><rect x="9" y="2" width="1" height="1" fill="rgb(157,142,14)"/><rect x="14" y="2" width="1" height="1" fill="rgb(157,142,14)"/><rect x="15" y="2" width="1" height="1" fill="rgb(241,224,90)"/><rect x="16" y="2" width="1" height="1" fill="rgb(247,120,186)"/><rect x="17" y="2" width="1" height="1" fill="rgb(241,224,90)"/><rect x="18" y="2" width="1" height="1" fill="rgb(157,142,14)"/><rect x="21" y="2" width="1" height="1" fill="rgb(138,147,160)"/><rect x="22" y="2" width="1" height="1" fill="rgb(205,214,224)"/><rect x="23" y="2" width="1" height="1" fill="rgb(138,147,160)"/><rect x="5" y="3" width="1" height="1" fill="rgb(157,142,14)"/><rect x="6" y="3" width="12" height="1" fill="rgb(241,224,90)"/><rect x="18" y="3" width="1" height="1" fill="rgb(157,142,14)"/><rect x="22" y="3" width="1" height="1" fill="rgb(138,147,160)"/><rect x="5" y="4" width="1" height="1" fill="rgb(157,142,14)"/><rect x="6" y="4" width="1" height="1" fill="rgb(241,224,90)"/><rect x="7" y="4" width="2" height="1" fill="rgb(34,39,46)"/><rect x="9" y="4" width="6" height="1" fill="rgb(241,224,90)"/><rect x="15" y="4" width="2" height="1" fill="rgb(34,39,46)"/><rect x="17" y="4" width="1" height="1" fill="rgb(241,224,90)"/><rect x="18" y="4" width="1" height="1" fill="rgb(157,142,14)"/><rect x="22" y="4" width="1" height="1" fill="rgb(248,81,73)"/><rect x="5" y="5" width="1" height="1" fill="rgb(157,142,14)"/><rect x="6" y="5" width="1" height="1" fill="rgb(236,216,40)"/><rect x="7" y="5" width="1" height="1" fill="rgb(34,39,46)"/><rect x="8" y="5" width="1" height="1" fill="rgb(254,251,236)"/><rect x="9" y="5" width="1" height="1" fill="rgb(236,216,40)"/><rect x="10" y="5" width="4" height="1" fill="rgb(241,224,90)"/><rect x="14" y="5" width="1" height="1" fill="rgb(236,216,40)"/><rect x="15" y="5" width="1" height="1" fill="rgb(34,39,46)"/><rect x="16" y="5" width="1" height="1" fill="rgb(254,251,236)"/><rect x="17" y="5" width="1" height="1" fill="rgb(236,216,40)"/><rect x="18" y="5" width="1" height="1" fill="rgb(157,142,14)"/><rect x="22" y="5" width="1" height="1" fill="rgb(138,90,43)"/><rect x="5" y="6" width="1" height="1" fill="rgb(157,142,14)"/><rect x="6" y="6" width="4" height="1" fill="rgb(241,224,90)"/><rect x="10" y="6" width="1" height="1" fill="rgb(34,39,46)"/><rect x="11" y="6" width="2" height="1" fill="rgb(241,224,90)"/><rect x="13" y="6" width="1" height="1" fill="rgb(34,39,46)"/><rect x="14" y="6" width="4" height="1" fill="rgb(241,224,90)"/><rect x="18" y="6" width="1" height="1" fill="rgb(157,142,14)"/><rect x="22" y="6" width="1" height="1" fill="rgb(95,61,28)"/><rect x="5" y="7" width="1" height="1" fill="rgb(157,142,14)"/><rect x="6" y="7" width="1" height="1" fill="rgb(241,224,90)"/><rect x="7" y="7" width="1" height="1" fill="rgb(252,249,221)"/><rect x="8" y="7" width="1" height="1" fill="rgb(241,224,90)"/><rect x="9" y="7" width="2" height="1" fill="rgb(106,72,44)"/><rect x="11" y="7" width="2" height="1" fill="rgb(34,39,46)"/><rect x="13" y="7" width="2" height="1" fill="rgb(106,72,44)"/><rect x="15" y="7" width="1" height="1" fill="rgb(241,224,90)"/><rect x="16" y="7" width="1" height="1" fill="rgb(252,249,221)"/><rect x="17" y="7" width="1" height="1" fill="rgb(241,224,90)"/><rect x="18" y="7" width="1" height="1" fill="rgb(157,142,14)"/><rect x="22" y="7" width="1" height="1" fill="rgb(138,90,43)"/><rect x="5" y="8" width="1" height="1" fill="rgb(157,142,14)"/><rect x="6" y="8" width="2" height="1" fill="rgb(241,224,90)"/><rect x="8" y="8" width="8" height="1" fill="rgb(106,72,44)"/><rect x="16" y="8" width="2" height="1" fill="rgb(241,224,90)"/><rect x="18" y="8" width="1" height="1" fill="rgb(157,142,14)"/><rect x="22" y="8" width="1" height="1" fill="rgb(95,61,28)"/><rect x="6" y="9" width="1" height="1" fill="rgb(157,142,14)"/><rect x="7" y="9" width="2" height="1" fill="rgb(241,224,90)"/><rect x="9" y="9" width="6" height="1" fill="rgb(106,72,44)"/><rect x="15" y="9" width="2" height="1" fill="rgb(241,224,90)"/><rect x="17" y="9" width="1" height="1" fill="rgb(157,142,14)"/><rect x="22" y="9" width="1" height="1" fill="rgb(138,90,43)"/><rect x="7" y="10" width="2" height="1" fill="rgb(157,142,14)"/><rect x="9" y="10" width="1" height="1" fill="rgb(241,224,90)"/><rect x="10" y="10" width="4" height="1" fill="rgb(106,72,44)"/><rect x="14" y="10" width="1" height="1" fill="rgb(241,224,90)"/><rect x="15" y="10" width="2" height="1" fill="rgb(157,142,14)"/><rect x="19" y="10" width="3" height="1" fill="rgb(157,142,14)"/><rect x="22" y="10" width="1" height="1" fill="rgb(95,61,28)"/><rect x="6" y="11" width="1" height="1" fill="rgb(157,142,14)"/><rect x="7" y="11" width="10" height="1" fill="rgb(241,224,90)"/><rect x="17" y="11" width="1" height="1" fill="rgb(157,142,14)"/><rect x="19" y="11" width="1" height="1" fill="rgb(157,142,14)"/><rect x="20" y="11" width="1" height="1" fill="rgb(241,224,90)"/><rect x="21" y="11" width="2" height="1" fill="rgb(34,39,46)"/><rect x="5" y="12" width="1" height="1" fill="rgb(157,142,14)"/><rect x="6" y="12" width="2" height="1" fill="rgb(241,224,90)"/><rect x="8" y="12" width="2" height="1" fill="rgb(254,251,236)"/><rect x="10" y="12" width="1" height="1" fill="rgb(236,216,40)"/><rect x="11" y="12" width="1" height="1" fill="rgb(254,251,236)"/><rect x="12" y="12" width="1" height="1" fill="rgb(236,216,40)"/><rect x="13" y="12" width="1" height="1" fill="rgb(254,251,236)"/><rect x="14" y="12" width="3" height="1" fill="rgb(241,224,90)"/><rect x="17" y="12" width="1" height="1" fill="rgb(157,142,14)"/><rect x="19" y="12" width="1" height="1" fill="rgb(157,142,14)"/><rect x="20" y="12" width="1" height="1" fill="rgb(241,224,90)"/><rect x="21" y="12" width="1" height="1" fill="rgb(157,142,14)"/><rect x="22" y="12" width="1" height="1" fill="rgb(95,61,28)"/><rect x="5" y="13" width="1" height="1" fill="rgb(157,142,14)"/><rect x="6" y="13" width="2" height="1" fill="rgb(241,224,90)"/><rect x="8" y="13" width="6" height="1" fill="rgb(236,216,40)"/><rect x="14" y="13" width="3" height="1" fill="rgb(241,224,90)"/><rect x="17" y="13" width="2" height="1" fill="rgb(157,142,14)"/><rect x="19" y="13" width="1" height="1" fill="rgb(241,224,90)"/><rect x="20" y="13" width="1" height="1" fill="rgb(157,142,14)"/><rect x="22" y="13" width="1" height="1" fill="rgb(138,90,43)"/><rect x="6" y="14" width="1" height="1" fill="rgb(157,142,14)"/><rect x="7" y="14" width="10" height="1" fill="rgb(241,224,90)"/><rect x="17" y="14" width="1" height="1" fill="rgb(157,142,14)"/><rect x="22" y="14" width="1" height="1" fill="rgb(95,61,28)"/><rect x="7" y="15" width="1" height="1" fill="rgb(157,142,14)"/><rect x="8" y="15" width="1" height="1" fill="rgb(241,224,90)"/><rect x="9" y="15" width="1" height="1" fill="rgb(157,142,14)"/><rect x="14" y="15" width="1" height="1" fill="rgb(157,142,14)"/><rect x="15" y="15" width="1" height="1" fill="rgb(241,224,90)"/><rect x="16" y="15" width="1" height="1" fill="rgb(157,142,14)"/><rect x="22" y="15" width="1" height="1" fill="rgb(138,90,43)"/><rect x="22" y="16" width="1" height="1" fill="rgb(95,61,28)"/></g>
<g id="blink"><rect x="7" y="5" width="2" height="1" fill="rgb(157,142,14)"/><rect x="15" y="5" width="2" height="1" fill="rgb(157,142,14)"/></g>
</g>
<text x="150" y="160" text-anchor="middle" font-family="ui-monospace,SFMono-Regular,Menlo,Consolas,monospace" font-size="16" font-weight="bold" fill="#F1E05A">Tavupla</text>
<text x="150" y="179" text-anchor="middle" font-family="ui-monospace,SFMono-Regular,Menlo,Consolas,monospace" font-size="11" fill="#8b949e">the Randu · adult · @wjames111</text>
<text x="46" y="203" text-anchor="end" font-family="ui-monospace,SFMono-Regular,Menlo,Consolas,monospace" font-size="11" fill="#f778ba">&#9829;</text>
<rect x="52" y="195" width="180" height="8" rx="4" fill="#21262d"/>
<rect x="52" y="195" width="120" height="8" rx="4" fill="#d29922"/>
<text x="240" y="203" font-family="ui-monospace,SFMono-Regular,Menlo,Consolas,monospace" font-size="11" fill="#8b949e">67</text>
<text x="288" y="219" text-anchor="end" font-family="ui-monospace,SFMono-Regular,Menlo,Consolas,monospace" font-size="9" fill="#484f58">gitagotchi</text>
</svg>
